<svg xmlns="http://www.w3.org/2000/svg" width="32" height="32" viewBox="0 0 32 32" fill="none">
  <rect width="32" height="32" rx="6" fill="#0EA5E9"/>
  <path d="M16 5C9.92487 5 5 9.92487 5 16C5 22.0751 9.92487 27 16 27C22.0751 27 27 22.0751 27 16C27 9.92487 22.0751 5 16 5ZM16 8C20.4183 8 24 11.5817 24 16C24 20.4183 20.4183 24 16 24C11.5817 24 8 20.4183 8 16C8 11.5817 11.5817 8 16 8Z" fill="white"/>
  <path d="M16 12C13.7909 12 12 13.7909 12 16C12 18.2091 13.7909 20 16 20C18.2091 20 20 18.2091 20 16C20 13.7909 18.2091 12 16 12Z" fill="orange"/>
</svg> 